<?xml version="1.0" encoding="UTF-8"?>
<svg version="1.1" xmlns="http://www.w3.org/2000/svg" width="1024" height="1024">
<path d="M0 0 C337.92 0 675.84 0 1024 0 C1024 337.92 1024 675.84 1024 1024 C686.08 1024 348.16 1024 0 1024 C0 686.08 0 348.16 0 0 Z " fill="#F6F5F3" transform="translate(0,0)"/>
<path d="M0 0 C337.92 0 675.84 0 1024 0 C1024 337.92 1024 675.84 1024 1024 C686.08 1024 348.16 1024 0 1024 C0 686.08 0 348.16 0 0 Z M455 88 C453.93330078 88.14453613 452.86660156 88.28907227 451.76757812 88.43798828 C368.26421278 100.21243221 286.30148415 137.93064132 224.58203125 195.6015625 C222.49001087 197.54483106 220.36877628 199.4096941 218.1875 201.25 C209.45953288 208.822795 201.10141233 217.2375747 193.65234375 226.0703125 C191.58441369 228.48534193 189.41392566 230.79565725 187.25 233.125 C181.95687262 238.93140034 177.12467134 245.03906589 172.33935547 251.26660156 C171.07374657 252.90455694 169.79229334 254.52837123 168.50390625 256.1484375 C155.44931277 272.73299305 144.61268149 290.78982877 134 309 C133.4416748 309.94520508 132.88334961 310.89041016 132.30810547 311.86425781 C111.97688497 346.51349744 98.8430166 385.98669147 90 425 C89.69304199 426.3307959 89.69304199 426.3307959 89.37988281 427.68847656 C70.5390464 511.04191514 82.54180808 602.71849627 143.90625 732.203125 C155.86439946 750.90330404 168.6911942 769.02021711 183 786 C183.8353125 787.0209375 184.670625 788.041875 185.53125 789.09375 C192.96937201 798.04197355 201.09107633 806.27943633 209.3125 814.5 C209.87798553 815.06639191 210.44347107 815.63278381 211.02609253 816.21633911 C217.16960835 822.358742 223.35375745 828.39650884 230 834 C231.05638818 834.91229906 232.11239614 835.82503865 233.16796875 836.73828125 C240.02562914 842.58459198 246.98469922 848.25757792 254.20410156 853.65478516 C255.43117968 854.57392605 256.65432708 855.49833196 257.87402344 856.42724609 C313.17875704 898.44948395 379.76553345 924.59384639 448 935.8125 C449.17788086 936.00739014 450.35576172 936.20228027 451.56933594 936.40307617 C470.73460005 939.38893063 489.87026985 940.41000687 509.25 940.375 C510.34318542 940.37478851 511.43637085 940.37457703 512.56268311 940.37435913 C542.93900972 940.31635862 573.42414469 938.27190131 603 931 C604.36533738 930.66983744 605.73073848 930.33993828 607.09619141 930.01025391 C651.98411745 919.11635768 694.25947421 902.78410256 734 879 C735.32257813 878.21689453 735.32257813 878.21689453 736.671875 877.41796875 C748.39789855 870.45352413 759.42900196 862.98412226 770.10253906 854.49609375 C771.90259702 853.07679947 773.72152318 851.68865697 775.5546875 850.3125 C781.83393037 845.59375214 787.76867752 840.63734244 793.52734375 835.29296875 C795.61144492 833.36031885 797.72278411 831.4806684 799.875 829.625 C808.66006804 821.96029489 817.11619685 813.97708289 825.375 805.75 C826.35533203 804.7765564 826.35533203 804.7765564 827.35546875 803.78344727 C831.77203522 799.35282604 835.94198301 794.76016455 840 790 C840.54479004 789.36191406 841.08958008 788.72382812 841.65087891 788.06640625 C855.56822147 771.63937896 867.76179223 754.35025731 879 736 C879.51481934 735.16645996 880.02963867 734.33291992 880.56005859 733.47412109 C886.87244565 723.24019535 892.82560178 712.95823173 897.99169922 702.09765625 C899.05491815 699.88574898 900.15228066 697.69301215 901.25390625 695.5 C913.09969602 671.64925473 922.50844537 646.79517168 929.20947266 621.02734375 C929.91857257 618.31182834 930.66099867 615.608714 931.41796875 612.90625 C940.20297281 580.77804685 944.24497855 545.65862545 944.1875 512.4375 C944.18656342 511.72723663 944.18562683 511.01697327 944.18466187 510.28518677 C944.02859809 454.93789843 932.86057104 400.87510046 911 350 C910.09070836 347.84002786 909.18184891 345.67987373 908.2734375 343.51953125 C893.04357182 307.69279742 872.26621143 274.64942936 847.42675781 244.73095703 C846.17142258 243.20797161 844.93926912 241.66594085 843.7109375 240.12109375 C833.88378762 227.77274624 822.68688833 216.60509783 811.5625 205.4375 C810.73451904 204.60484619 809.90653809 203.77219238 809.0534668 202.91430664 C804.19605226 198.06960913 799.20338906 193.46845974 794 189 C792.60246974 187.731033 791.20628172 186.4605831 789.8125 185.1875 C784.69254754 180.63546036 779.27754218 176.49249191 773.80957031 172.37255859 C771.94255153 170.95642535 770.09181402 169.52078799 768.2421875 168.08203125 C759.23094728 161.12568855 749.90067447 155.03512668 740.10058594 149.25097656 C738.21019757 148.12518042 736.34015955 146.974108 734.4765625 145.8046875 C685.21337673 115.07539436 627.76637399 95.50128251 570.25 88.28808594 C568.14209436 88.0181935 566.0400537 87.7225894 563.9375 87.4140625 C546.99912837 84.97917158 530.08168354 84.7609015 513 84.75 C511.89972473 84.74899292 510.79944946 84.74798584 509.66583252 84.74694824 C491.26729674 84.75828951 473.24635947 85.51354875 455 88 Z " fill="#F7F5F3" transform="translate(0,0)"/>
<path d="M0 0 C1.14065918 0.24669434 2.28131836 0.49338867 3.45654297 0.74755859 C25.16752957 5.54181062 45.4237458 12.45588942 65 23 C65.99507568 23.52762939 65.99507568 23.52762939 67.01025391 24.06591797 C82.03632706 32.06616032 95.25427026 41.75283011 108 53 C108.50241211 53.43924805 109.00482422 53.87849609 109.52246094 54.33105469 C128.55210162 71.03306203 143.73023646 90.50384334 157 112 C158.04414062 113.65128906 158.04414062 113.65128906 159.109375 115.3359375 C179.75783447 149.44719255 191.03725648 193.2961586 192 233 C192.02723145 234.08152344 192.05446289 235.16304687 192.08251953 236.27734375 C193.04001042 281.41792042 184.17532858 323.94196429 165.75 365.2578125 C165.36782822 366.12192245 164.98565643 366.98603241 164.59190369 367.87632751 C163 371 163 371 160.7975769 374.00674438 C150.90638459 388.09867296 152.79671103 405.18119636 152.98432016 421.60424137 C153.02407642 426.00235199 153.00968656 430.40028974 153.0007019 434.79852295 C152.99119853 443.1161765 153.02457174 451.43301636 153.07607162 459.75049472 C153.16687529 474.64117583 153.18394599 489.53204464 153.18526542 504.42297244 C153.18742703 509.63551956 153.20828551 514.84754823 153.24545598 520.05995989 C153.26626108 523.31208544 153.27494646 526.56417378 153.28108406 529.81635666 C153.28660852 531.31061858 153.29729659 532.80487294 153.31386757 534.29905319 C153.50868607 552.33887245 149.91160355 566.43280625 137.27734375 579.71875 C136.52582031 580.4715625 135.77429688 581.224375 135 582 C134.04287109 582.97453125 134.04287109 582.97453125 133.06640625 583.96875 C121.92253136 594.53342142 109.06434021 597.30614158 94.24275208 597.26742554 C92.96693714 597.27195665 91.69112221 597.27648776 90.37664622 597.28115618 C86.85110012 597.29334431 83.3256492 597.29313068 79.80008686 597.29076743 C75.99147586 597.2903582 72.18289496 597.30140862 68.3742981 597.31088257 C60.91803655 597.32747095 53.46180664 597.33299115 46.00552819 597.33410732 C39.94175246 597.3350589 33.87798714 597.33917467 27.81421471 597.34550858 C10.60668184 597.36311572 -6.60082611 597.37234837 -23.80836805 597.37084763 C-24.73535903 597.37076772 -25.66235002 597.3706878 -26.61743164 597.37060547 C-27.54556002 597.37052371 -28.47368839 597.37044195 -29.42994187 597.37035771 C-44.46506781 597.36954514 -59.50009348 597.38867685 -74.53519043 597.4168822 C-89.98843318 597.44564223 -105.44162709 597.45942076 -120.89489728 597.45769465 C-129.56454378 597.45703179 -138.23408518 597.46247844 -146.9037075 597.48405075 C-154.28642907 597.50230373 -161.66899791 597.50657627 -169.05173232 597.4930319 C-172.81442547 597.4865227 -176.57682598 597.48631022 -180.33949089 597.5037384 C-184.42915759 597.52248539 -188.51815313 597.50986129 -192.60783386 597.49447632 C-193.78237678 597.50476344 -194.9569197 597.51505057 -196.16705483 597.52564943 C-212.20840622 597.39287875 -225.07184231 591.32712531 -236.67578125 580.48828125 C-249.50073171 566.75804016 -252.32017101 551.18534957 -252.19189453 533.1015625 C-252.18809041 531.50222471 -252.18528468 529.90288429 -252.18339539 528.30354309 C-252.17797236 524.87256375 -252.16701298 521.44166274 -252.15213394 518.01071167 C-252.13008049 512.56969052 -252.12976335 507.12880067 -252.13400269 501.68774414 C-252.13519592 499.81861879 -252.13636493 497.94949342 -252.1375103 496.08036804 C-252.13809055 495.14458105 -252.1386708 494.20879406 -252.13926864 493.24464989 C-252.14527407 480.5908824 -252.13304313 467.9373507 -252.07910156 455.28369141 C-252.04281372 446.73028744 -252.03532587 438.1773615 -252.05959976 429.623909 C-252.07121389 425.10875727 -252.06851879 420.59467662 -252.03009415 416.07965088 C-251.42105461 390.36225264 -251.42105461 390.36225264 -261 367 C-261.95424805 364.8640048 -262.87032985 362.70992036 -263.72265625 360.53125 C-264.11235596 359.54189453 -264.50205566 358.55253906 -264.90356445 357.53320312 C-273.33104269 335.47653795 -279.09665691 313.27711919 -283 290 C-283.16516113 289.07590332 -283.33032227 288.15180664 -283.50048828 287.19970703 C-288.54144468 258.41881737 -287.90324661 226.7621427 -283 198 C-282.83902832 197.03143066 -282.67805664 196.06286133 -282.51220703 195.06494141 C-278.49413648 171.7323415 -271.80835122 148.13353027 -261 127 C-260.6709668 126.35417969 -260.34193359 125.70835937 -260.00292969 125.04296875 C-251.55334893 108.74793185 -241.22445445 92.71150795 -229 79 C-228.18660156 78.07832031 -227.37320313 77.15664063 -226.53515625 76.20703125 C-215.85053657 64.33000174 -204.74452521 52.68026778 -192 43 C-191.44376953 42.57267578 -190.88753906 42.14535156 -190.31445312 41.70507812 C-137.59691179 1.35125984 -64.94186589 -14.39186002 0 0 Z " fill="#000000" transform="translate(560,209)"/>
<path d="M0 0 C1.03827438 -0.0033284 2.07654877 -0.0066568 3.14628601 -0.01008606 C5.33197594 -0.01511223 7.51767343 -0.01749573 9.70336914 -0.01733398 C12.96579435 -0.01950075 16.22786959 -0.03764901 19.49023438 -0.05664062 C100.87731366 -0.27440848 181.4868666 25.18039034 249.69921875 69.16796875 C250.75753906 69.84601563 251.81585937 70.5240625 252.90625 71.22265625 C259.8658563 75.76509915 266.46987393 80.70084181 272.99755859 85.83398438 C274.75206664 87.20939786 276.51573384 88.5723469 278.28125 89.93359375 C285.35805005 95.40938143 292.13320931 101.08115565 298.69921875 107.16796875 C299.611875 107.98910156 300.52453125 108.81023437 301.46484375 109.65625 C308.71000639 116.19931143 315.66181885 123.0253614 322.57421875 129.91796875 C323.4660083 130.80516602 324.35779785 131.69236328 325.27661133 132.60644531 C330.29136823 137.632964 335.10025325 142.75941986 339.69921875 148.16796875 C340.57640748 149.17744448 341.45398302 150.18658428 342.33203125 151.1953125 C349.8077047 159.9247431 356.83841312 168.94889231 363.69921875 178.16796875 C364.1900293 178.8218457 364.68083984 179.47572266 365.18652344 180.14941406 C374.41481488 192.51419996 382.20092302 205.72399454 389.90576172 219.06689453 C391.41764354 221.68109585 392.94690873 224.2836394 394.484375 226.8828125 C439.07537254 303.35234531 453.83864544 396.5209547 432.69921875 529.16796875 C432.41175781 530.29299805 432.12429688 531.41802734 431.828125 532.57714844 C427.71108401 548.52000528 423.01018394 563.95935521 416.69921875 579.16796875 C416.27737305 580.19519043 415.85552734 581.22241211 415.42089844 582.28076172 C406.74473294 603.35189616 397.53055175 623.67464703 385.69921875 643.16796875 C385.12365234 644.11897461 384.54808594 645.06998047 383.95507812 646.04980469 C370.40360439 668.33974205 355.60296825 689.54770614 337.89453125 708.76171875 C336.05808095 710.77462513 334.27724554 712.8181652 332.5 714.8828125 C328.44547028 719.52722976 324.13079533 723.88351408 319.76171875 728.23046875 C318.62186523 729.37612305 318.62186523 729.37612305 317.45898438 730.54492188 C313.2668249 734.72992138 308.98696684 738.74246992 304.49731445 742.60620117 C302.01550481 744.76182049 299.64711476 747.03162751 297.26171875 749.29296875 C290.52085923 755.55757784 283.21759945 761.02118218 275.85644531 766.52832031 C273.81381834 768.08086476 271.8108906 769.67144635 269.81640625 771.28515625 C221.87572875 809.75212952 161.83116551 832.80446786 102.60754395 846.71813965 C100.97112538 847.10387511 99.3364527 847.49700415 97.70214844 847.89160156 C53.34616803 858.43283222 2.59841322 858.98236044 -42.30078125 852.16796875 C-43.42790527 852.00699707 -44.5550293 851.84602539 -45.71630859 851.68017578 C-103.31160308 843.32151113 -159.53767016 823.58210015 -208.9140625 792.66064453 C-211.36749549 791.12624506 -213.83320663 789.61309587 -216.30078125 788.1015625 C-225.75308021 782.27162364 -234.63908846 776.11695906 -243.30078125 769.16796875 C-244.43706929 768.28422584 -245.575142 767.40277358 -246.71484375 766.5234375 C-255.14458052 760.00528544 -263.31278875 753.22032524 -271.30078125 746.16796875 C-271.80335449 745.72469238 -272.30592773 745.28141602 -272.82373047 744.82470703 C-280.14816744 738.31598462 -287.13528408 731.45379041 -294.08984375 724.55413818 C-295.50643986 723.14943778 -296.92698633 721.74872467 -298.34765625 720.34814453 C-304.43820947 714.26524825 -309.92689956 707.88532086 -315.30078125 701.16796875 C-316.23581201 700.06635378 -317.17714513 698.9700056 -318.12890625 697.8828125 C-340.49193989 672.23746263 -358.08058337 642.46652755 -373.30078125 612.16796875 C-373.70393555 611.37100586 -374.10708984 610.57404297 -374.52246094 609.75292969 C-415.57859167 528.02567883 -427.03895396 431.86049597 -398.34375 303.02050781 C-397.34349643 300.06460579 -396.32522578 297.11556368 -395.30078125 294.16796875 C-394.99060059 293.25853516 -394.68041992 292.34910156 -394.36083984 291.41210938 C-383.13145429 258.60876416 -368.02285999 228.30212936 -349.30078125 199.16796875 C-348.85637695 198.47380859 -348.41197266 197.77964844 -347.95410156 197.06445312 C-338.97282967 183.10585837 -328.9923188 169.86078904 -318.30078125 157.16796875 C-317.87394043 156.65621094 -317.44709961 156.14445313 -317.00732422 155.6171875 C-302.69813443 138.48092306 -287.3576383 121.61683535 -270.30078125 107.16796875 C-269.30949219 106.29914063 -268.31820312 105.4303125 -267.296875 104.53515625 C-258.28029313 96.65238031 -248.92292086 89.29612665 -239.30078125 82.16796875 C-238.62176758 81.66265625 -237.94275391 81.15734375 -237.24316406 80.63671875 C-226.23761246 72.49780336 -214.71067065 65.43644124 -202.84277344 58.62841797 C-200.6050479 57.34277888 -198.37724806 56.04201343 -196.15234375 54.734375 C-143.72069272 24.20277423 -83.50235338 6.62948363 -23.30078125 1.16796875 C-22.42415329 1.08463791 -21.54752533 1.00130707 -20.64433289 0.91545105 C-13.74855248 0.29188736 -6.9222285 0.00802752 0 0 Z M-238.71875 147.83203125 C-240.80044924 149.71532346 -242.90814152 151.55172109 -245.03515625 153.3828125 C-249.67243955 157.43250041 -254.02235856 161.74245485 -258.36328125 166.10546875 C-259.12705078 166.86537109 -259.89082031 167.62527344 -260.67773438 168.40820312 C-280.32529717 188.08938022 -296.4750958 210.73477824 -311.30078125 234.16796875 C-311.70506348 234.80105957 -312.1093457 235.43415039 -312.52587891 236.08642578 C-340.17285122 279.58741838 -357.52219903 329.18823944 -364.30078125 380.16796875 C-364.47955811 381.43801758 -364.65833496 382.70806641 -364.8425293 384.01660156 C-366.6018091 397.33858351 -366.65536923 410.62293287 -366.61328125 424.04296875 C-366.61179077 425.2150589 -366.61030029 426.38714905 -366.60876465 427.59475708 C-366.56899024 444.98255741 -366.07047671 461.97377098 -363.30078125 479.16796875 C-363.1615625 480.0923877 -363.02234375 481.01680664 -362.87890625 481.96923828 C-357.69382635 515.95431638 -347.20851993 548.79810375 -333.30078125 580.16796875 C-332.9351709 580.99699707 -332.56956055 581.82602539 -332.19287109 582.68017578 C-323.68663251 601.78129041 -313.33023379 620.06760943 -301.30078125 637.16796875 C-300.67260498 638.06999023 -300.67260498 638.06999023 -300.03173828 638.99023438 C-294.72238247 646.60547095 -289.18788349 653.98686978 -283.30078125 661.16796875 C-282.63949219 662.00328125 -281.97820312 662.83859375 -281.296875 663.69921875 C-271.83526245 675.54801532 -261.21761717 686.34091514 -250.54916382 697.09481812 C-249.15678257 698.49909576 -247.76838839 699.90732322 -246.38012695 701.31567383 C-240.33264493 707.37085474 -233.99660042 712.84519635 -227.30078125 718.16796875 C-226.10410767 719.15694259 -224.90969748 720.14866931 -223.71875 721.14453125 C-173.13072575 762.86979945 -111.21078934 788.9893706 -46.86328125 799.98046875 C-45.72914795 800.17543945 -44.59501465 800.37041016 -43.42651367 800.57128906 C-23.73865296 803.74553148 -4.09229727 804.54862176 15.82421875 804.48046875 C17.57335068 804.47673752 17.57335068 804.47673752 19.3578186 804.47293091 C100.00262687 804.20716827 180.97371372 776.9738511 244.69921875 727.16796875 C245.89924521 726.24414913 247.09976113 725.32096494 248.30078125 724.3984375 C251.80124997 721.69699931 255.25668201 718.94268549 258.69921875 716.16796875 C259.22064453 715.75240723 259.74207031 715.3368457 260.27929688 714.90869141 C269.05284483 707.86734269 277.04443533 700.0309503 285.01171875 692.10546875 C285.52377869 691.59867584 286.03583862 691.09188293 286.56341553 690.56973267 C293.41629837 683.77139918 299.66990631 676.72010537 305.69921875 669.16796875 C306.64569332 668.05438956 307.59877917 666.94634405 308.5625 665.84765625 C315.93980831 657.39963813 322.4192185 648.4543521 328.69921875 639.16796875 C329.16328125 638.4821875 329.62734375 637.79640625 330.10546875 637.08984375 C347.71827218 610.8707841 361.9353077 582.86238941 372.69921875 553.16796875 C373.04436523 552.22163574 373.38951172 551.27530273 373.74511719 550.30029297 C405.13851095 463.17994062 402.63587214 362.72954359 363.66796875 278.37890625 C348.40522596 246.16097944 330.10245169 216.37190302 307.23291016 189.01025391 C305.81512824 187.30720036 304.41751282 185.58964731 303.0234375 183.8671875 C296.51061396 175.9323657 289.36944724 168.62809374 282.13671875 161.35546875 C281.65366272 160.86714569 281.17060669 160.37882263 280.6729126 159.8757019 C274.76900528 153.92205452 268.67901027 148.34867766 262.1262207 143.10913086 C260.17041233 141.54483829 258.26120048 139.95545498 256.37890625 138.3046875 C248.56410699 131.4803433 240.33664712 125.44486495 231.77636719 119.58935547 C229.85093021 118.27178447 227.93485854 116.94157304 226.01953125 115.609375 C199.08590864 97.06346231 169.30483553 83.43214606 138.69921875 72.16796875 C137.75884766 71.82008301 136.81847656 71.47219727 135.84960938 71.11376953 C38.11793545 35.43991859 -72.84868126 48.20966109 -238.71875 147.83203125 Z " fill="#000000" transform="translate(498.30078125,84.83203125)"/>
<path d="M0 0 C0.99257813 0.83015625 1.98515625 1.6603125 3.0078125 2.515625 C24.7441064 21.25931622 38.06724849 47.80377946 46 75 C46.29148926 75.9904834 46.29148926 75.9904834 46.58886719 77.00097656 C47.92100926 81.62976342 49.01830392 86.28523223 50 91 C50.15098145 91.69673828 50.30196289 92.39347656 50.45751953 93.11132812 C53.11299357 105.93322868 53.28976559 118.77262901 53.3125 131.8125 C53.31608521 132.64121613 53.31967041 133.46993225 53.32336426 134.32376099 C53.35784643 149.15384614 52.06128947 163.47929678 48.875 178 C48.66689697 178.95350342 48.45879395 179.90700684 48.24438477 180.8894043 C45.25152754 193.9699697 40.92256621 206.73852981 35.93067932 219.18583679 C35.56943749 220.08713161 35.20819567 220.98842642 34.83600712 221.9170332 C34.56012477 222.60441224 34.28424242 223.29179129 34 224 C17.09291368 224.32764798 0.18682339 224.57420637 -16.72271538 224.72537041 C-24.57501476 224.79743871 -32.42533727 224.89560391 -40.27636719 225.05615234 C-47.12285785 225.19609136 -53.96791684 225.28610377 -60.81579792 225.31723893 C-64.43968062 225.33543172 -68.05946958 225.37787436 -71.68203354 225.48022079 C-93.6771138 226.07796238 -93.6771138 226.07796238 -99.16642761 222.64522743 C-103.0155135 218.99614822 -104.9555745 214.82609432 -107 210 C-108.16366332 208.19143997 -109.35907538 206.40213018 -110.609375 204.65234375 C-112.19535463 202.27725201 -113.7752198 199.89898869 -115.33984375 197.50976562 C-118.8342091 192.30272985 -122.26221453 187.86889274 -128 185 C-130.80632402 184.87732078 -133.5894352 184.81426341 -136.39697266 184.79467773 C-137.26533249 184.78477814 -138.13369232 184.77487854 -139.02836609 184.76467896 C-141.90690355 184.73301842 -144.78545753 184.70828855 -147.6640625 184.68359375 C-149.65661047 184.66302815 -151.64915405 184.64203179 -153.64169312 184.62062073 C-158.89254192 184.56535933 -164.14343036 184.51596801 -169.39434814 184.46777344 C-174.74991392 184.41758809 -180.10542196 184.36188656 -185.4609375 184.30664062 C-195.97390904 184.1990093 -206.48693066 184.09757539 -217 184 C-217.48239373 182.41441751 -217.96300374 180.82829227 -218.44287109 179.24194336 C-218.71070404 178.3587291 -218.97853699 177.47551483 -219.25448608 176.5655365 C-220.21526505 173.25920854 -220.95200666 169.93855999 -221.625 166.5625 C-221.86476563 165.38816406 -222.10453125 164.21382812 -222.3515625 163.00390625 C-224.17573399 152.53126698 -224.20441574 141.97147936 -224.1875 131.375 C-224.18656342 130.61755493 -224.18562683 129.86010986 -224.18466187 129.07971191 C-224.15566021 118.26937945 -224.04710006 107.64994385 -222 97 C-221.84934082 96.18273437 -221.69868164 95.36546875 -221.54345703 94.5234375 C-215.48289866 62.57305869 -201.57268208 32.60812622 -179 9 C-178.39027344 8.32710938 -177.78054688 7.65421875 -177.15234375 6.9609375 C-132.68655754 -40.43147158 -48.40882866 -40.86637661 0 0 Z " fill="#F6F5F3" transform="translate(597,323)"/>
<path d="M0 0 C0.92942413 -0.00571014 1.85884827 -0.01142029 2.81643677 -0.01730347 C3.83415665 -0.01842133 4.85187653 -0.01953918 5.9004364 -0.02069092 C6.97388306 -0.02565582 8.04732971 -0.03062073 9.15330505 -0.03573608 C12.71184424 -0.05036598 16.27033885 -0.05716111 19.8289032 -0.06268311 C22.29888918 -0.06843387 24.76887514 -0.07419161 27.23886108 -0.07995605 C32.42146513 -0.0904684 37.60405366 -0.09630954 42.78666687 -0.09979248 C49.42802005 -0.10527768 56.0691632 -0.12930548 62.71046162 -0.15776443 C67.81397094 -0.17638656 72.91743086 -0.1815962 78.0209713 -0.18312836 C80.46938892 -0.18615636 82.91780564 -0.19418981 85.36618996 -0.20731354 C88.79182664 -0.22436467 92.21696202 -0.22249578 95.6426239 -0.21600342 C96.65427109 -0.2252182 97.66591827 -0.23443298 98.70822144 -0.243927 C105.19956202 -0.20538142 109.70610488 0.56555798 114.6257782 5.15606689 C115.56743835 6.26208252 115.56743835 6.26208252 116.52812195 7.39044189 C117.20230164 8.17934814 117.87648132 8.96825439 118.5710907 9.78106689 C120.23886129 11.85804306 121.81301624 13.95943551 123.34062195 16.14044189 C125.13299686 19.17053655 125.13299686 19.17053655 127.46562195 20.14044189 C129.56342487 20.23811857 131.66440612 20.26949671 133.76448059 20.27174377 C134.41799684 20.27385949 135.0715131 20.2759752 135.74483287 20.27815503 C137.9449107 20.2841687 140.1449314 20.28315389 142.34501648 20.2822876 C143.91851906 20.28531829 145.49202076 20.28883949 147.06552124 20.29281616 C150.46004967 20.30071411 153.85456755 20.30585352 157.24910355 20.30910683 C162.61988294 20.31501217 167.99059588 20.33154925 173.36134338 20.35044861 C175.19967075 20.35678638 177.03799816 20.363112 178.87632561 20.36942577 C179.79712528 20.37259158 180.71792495 20.3757574 181.66662765 20.37901914 C194.17285602 20.42109564 206.6790541 20.45405708 219.18534851 20.46636963 C227.61696389 20.474756 236.04841545 20.49727059 244.47994888 20.5357253 C248.94148818 20.55547149 253.40278265 20.56789544 257.86436844 20.56289101 C262.06533614 20.55823661 266.26584052 20.57209294 270.46671486 20.59990311 C272.00494554 20.60680239 273.54322426 20.60695504 275.08145332 20.59970284 C291.67538472 20.52939757 291.67538472 20.52939757 298.00578499 26.62299061 C304.01804284 33.42097478 302.46562195 36.99389518 302.46562195 47.14044189 C205.77562195 47.47044189 109.08562195 47.80044189 9.46562195 48.14044189 C9.13562195 97.97044189 8.80562195 147.80044189 8.46562195 199.14044189 C1.20562195 199.14044189 -6.05437805 199.14044189 -13.53437805 199.14044189 C-16.72987394 195.94494601 -16.88336752 195.26394608 -16.93560827 190.99615264 C-16.92557002 189.94835738 -16.92557002 189.94835738 -16.91532898 188.87939453 C-16.92000895 188.13448014 -16.92468892 187.38956574 -16.92951071 186.62207818 C-16.94150484 184.11857978 -16.93198634 181.61562434 -16.92256165 179.11212158 C-16.92662553 177.3201007 -16.93196638 175.52808233 -16.93849182 173.73606873 C-16.95219695 168.86190267 -16.94685257 163.98792661 -16.93735456 159.11375713 C-16.92976981 154.01475696 -16.93680072 148.91577326 -16.94151306 143.81677246 C-16.94697605 135.24868851 -16.93976683 126.68068205 -16.92549133 118.11260986 C-16.9091846 108.21116621 -16.91443677 98.30990807 -16.93097055 88.40846896 C-16.9445948 79.90899023 -16.94649985 71.40956728 -16.93865454 62.91008115 C-16.93398052 57.83325999 -16.93334535 52.75652593 -16.94326401 47.67971039 C-16.95194427 42.90264547 -16.94589231 38.12581891 -16.92858124 33.34877968 C-16.92462117 31.59725909 -16.92574222 29.84571838 -16.93236923 28.09420586 C-16.94059447 25.6990096 -16.93025165 23.30457204 -16.91532898 20.90942383 C-16.92202114 20.21981654 -16.92871331 19.53020925 -16.93560827 18.81970477 C-16.86994368 13.36770139 -15.65525922 8.60375701 -12.03437805 4.39825439 C-7.91979231 1.29088495 -5.11107943 0.01881665 0 0 Z " fill="#F6F5F3" transform="translate(369.5343780517578,567.8595581054688)"/>
<path d="M0 0 C0.66 0 1.32 0 2 0 C5.25968109 9.41002278 5.25968109 9.41002278 6 14 C5.34 14 4.68 14 4 14 C3.32968281 12.0429132 2.66385317 10.08428887 2 8.125 C1.62875 7.03445313 1.2575 5.94390625 0.875 4.8203125 C0 2 0 2 0 0 Z " fill="#ECECEC" transform="translate(148,619)"/>
<path d="M0 0 C1 2 1 2 0.3125 4.75 C-1.07926349 8.1962715 -2.84459722 10.9824361 -5 14 C-5.66 13.67 -6.32 13.34 -7 13 C-3.535 6.565 -3.535 6.565 0 0 Z " fill="#FAFBFA" transform="translate(724,577)"/>
<path d="M0 0 C0.33 0.99 0.66 1.98 1 3 C-1.31 4.98 -3.62 6.96 -6 9 C-6 6 -6 6 -4.6875 4.39453125 C-4.130625 3.87246094 -3.57375 3.35039062 -3 2.8125 C-2.443125 2.28269531 -1.88625 1.75289062 -1.3125 1.20703125 C-0.6628125 0.60955078 -0.6628125 0.60955078 0 0 Z " fill="#E8E8E8" transform="translate(238,253)"/>
<path d="M0 0 C4.75 0.75 4.75 0.75 7 3 C7.66 4.32 8.32 5.64 9 7 C6.03 5.35 3.06 3.7 0 2 C0 1.34 0 0.68 0 0 Z " fill="#EDEDED" transform="translate(300,823)"/>
<path d="M0 0 C0.33 0.99 0.66 1.98 1 3 C0.00390625 4.82421875 0.00390625 4.82421875 -1.4375 6.6875 C-1.91058594 7.31011719 -2.38367188 7.93273437 -2.87109375 8.57421875 C-3.24363281 9.04472656 -3.61617187 9.51523437 -4 10 C-4.33 9.01 -4.66 8.02 -5 7 C-4.00390625 5.17578125 -4.00390625 5.17578125 -2.5625 3.3125 C-2.08941406 2.68988281 -1.61632812 2.06726563 -1.12890625 1.42578125 C-0.75636719 0.95527344 -0.38382813 0.48476563 0 0 Z " fill="#E9E9E8" transform="translate(831,714)"/>
<path d="M0 0 C0 0.66 0 1.32 0 2 C-1.53125 3.2890625 -1.53125 3.2890625 -3.5 4.625 C-4.1496875 5.07101563 -4.799375 5.51703125 -5.46875 5.9765625 C-5.9740625 6.31429687 -6.479375 6.65203125 -7 7 C-7.66 6.67 -8.32 6.34 -9 6 C-7.8803014 4.99406757 -6.7540588 3.9954151 -5.625 3 C-4.68527344 2.1646875 -4.68527344 2.1646875 -3.7265625 1.3125 C-2 0 -2 0 0 0 Z " fill="#EFF0EF" transform="translate(249,174)"/>
<path d="M0 0 C0.6875 1.8125 0.6875 1.8125 1 4 C-0.4375 5.75 -0.4375 5.75 -2 7 C-2.99 6.67 -3.98 6.34 -5 6 C-3.35 4.02 -1.7 2.04 0 0 Z " fill="#ECEBEA" transform="translate(219,274)"/>
</svg>
